<?xml version="1.0" standalone="no"?>
<!DOCTYPE svg PUBLIC "-//W3C//DTD SVG 20010904//EN"
 "http://www.w3.org/TR/2001/REC-SVG-20010904/DTD/svg10.dtd">
<svg version="1.0" xmlns="http://www.w3.org/2000/svg"
 width="534.000000pt" height="186.000000pt" viewBox="0 0 534.000000 186.000000"
 preserveAspectRatio="xMidYMid meet">
<metadata>
Created by potrace 1.15, written by Peter Selinger 2001-2017
</metadata>
<g transform="translate(0.000000,186.000000) scale(0.100000,-0.100000)"
fill="#000000" stroke="none">
<path d="M1023 1469 c-40 -22 -73 -44 -73 -47 0 -4 46 -33 103 -65 56 -31 125
-70 154 -87 l51 -29 -76 134 c-42 74 -79 135 -82 135 -3 0 -38 -19 -77 -41z"/>
<path d="M833 1359 c-40 -22 -73 -44 -73 -47 0 -6 342 -206 631 -370 l59 -34
-81 141 -80 141 -185 105 c-102 58 -188 105 -192 105 -4 0 -40 -19 -79 -41z"/>
<path d="M740 864 c0 -228 3 -413 8 -411 4 2 165 95 359 207 300 173 350 205
335 215 -31 22 -692 405 -697 405 -3 0 -5 -187 -5 -416z m276 55 c46 -28 84
-52 84 -54 0 -6 -171 -105 -181 -105 -5 0 -9 47 -9 105 0 70 4 105 11 105 6 0
49 -23 95 -51z"/>
<path d="M625 1109 l-80 -144 3 -215 3 -215 76 -43 c42 -23 78 -41 80 -39 2 2
2 183 1 402 l-3 398 -80 -144z"/>
<path d="M2059 1093 c0 -65 -3 -112 -6 -105 -9 22 -63 44 -109 44 -110 0 -177
-112 -126 -212 36 -71 148 -99 211 -52 30 22 31 22 31 2 0 -13 7 -20 20 -20
19 0 20 7 20 230 0 223 -1 230 -20 230 -19 0 -20 -7 -21 -117z m-43 -110 c12
-8 30 -30 39 -49 36 -77 -34 -172 -118 -161 -99 13 -137 137 -64 205 37 34 96
36 143 5z"/>
<path d="M3084 1174 c-63 -31 -81 -105 -41 -165 17 -26 39 -40 97 -61 83 -31
100 -47 100 -93 0 -73 -102 -107 -169 -57 -35 26 -69 20 -48 -9 36 -48 131
-63 195 -30 97 49 77 183 -31 212 -102 27 -138 64 -123 124 14 53 113 79 156
40 21 -19 54 -13 48 8 -7 20 -70 47 -113 47 -22 0 -54 -7 -71 -16z"/>
<path d="M3492 1177 c-113 -42 -167 -161 -131 -292 15 -52 82 -119 134 -134
83 -23 175 -4 215 44 11 13 11 18 -2 32 -15 14 -17 13 -27 -5 -6 -11 -30 -27
-53 -37 -101 -40 -218 26 -238 136 -26 140 83 259 210 230 23 -5 52 -19 64
-30 21 -20 24 -20 37 -5 11 14 10 18 -6 31 -55 42 -136 54 -203 30z"/>
<path d="M3800 965 l0 -215 140 0 c116 0 140 2 140 15 0 12 -22 15 -117 17
l-118 3 -3 83 -3 82 106 0 c98 0 105 1 105 20 0 19 -7 20 -105 20 l-106 0 3
78 3 77 113 3 c90 2 112 5 112 17 0 12 -23 15 -135 15 l-135 0 0 -215z"/>
<path d="M4170 965 c0 -184 2 -215 15 -215 13 0 15 27 15 185 0 102 3 185 8
185 4 0 64 -83 133 -183 104 -151 130 -183 152 -185 l27 -3 0 215 c0 209 -1
216 -20 216 -19 0 -20 -8 -22 -186 l-3 -186 -129 186 c-106 153 -133 186 -152
186 l-24 0 0 -215z"/>
<path d="M4640 965 l0 -215 88 0 c110 0 153 12 202 56 90 81 93 224 6 310 -50
51 -93 64 -208 64 l-88 0 0 -215z m180 174 c89 -20 140 -83 140 -174 0 -61
-21 -107 -62 -138 -39 -30 -117 -50 -180 -45 l-43 3 -3 170 c-1 93 0 175 2
182 6 16 82 17 146 2z"/>
<path d="M2530 1070 c0 -38 -2 -40 -30 -40 -20 0 -30 -5 -30 -15 0 -10 10 -15
30 -15 l29 0 3 -117 3 -118 28 -13 c32 -16 77 -8 77 12 0 9 -7 12 -19 9 -10
-3 -28 0 -40 6 -19 11 -21 20 -21 116 l0 105 40 0 c29 0 40 4 40 15 0 11 -11
15 -40 15 l-40 0 0 40 c0 29 -4 40 -15 40 -11 0 -15 -11 -15 -40z"/>
<path d="M2253 1030 c-18 -4 -40 -13 -48 -20 -27 -22 -2 -30 44 -14 61 21 107
5 119 -39 l8 -32 -61 -7 c-99 -10 -135 -35 -135 -94 0 -38 16 -61 51 -73 48
-17 72 -14 113 14 34 23 36 23 36 5 0 -11 7 -20 16 -20 13 0 14 14 8 113 -4
61 -11 120 -16 129 -17 33 -79 51 -135 38z m121 -167 c-13 -63 -44 -93 -97
-93 -56 0 -87 59 -49 92 25 22 40 26 100 27 52 1 52 1 46 -26z"/>
<path d="M2773 1030 c-18 -4 -40 -13 -48 -20 -26 -22 -2 -30 42 -15 29 10 50
12 74 5 37 -11 49 -25 49 -57 0 -20 -5 -23 -37 -23 -91 0 -153 -37 -153 -91 0
-43 15 -65 51 -78 48 -17 72 -14 113 14 34 23 36 23 36 5 0 -11 7 -20 16 -20
13 0 14 14 8 113 -4 61 -11 120 -16 129 -17 33 -79 51 -135 38z m117 -172 c-1
-37 -14 -59 -47 -76 -69 -37 -151 32 -95 80 24 22 40 26 95 27 47 1 47 1 47
-31z"/>
<path d="M436 785 c-43 -75 -77 -137 -75 -139 20 -15 153 -86 156 -83 2 2 2
84 1 181 l-3 177 -79 -136z"/>
<path d="M1134 642 l-341 -197 158 -3 159 -2 184 107 185 108 1 93 c0 50 -1
92 -2 92 -2 0 -156 -89 -344 -198z"/>
<path d="M1326 532 l-150 -87 148 -3 c82 -1 151 -1 153 1 2 3 3 43 1 90 l-3
86 -149 -87z"/>
</g>
</svg>
